<?xml version="1.0" standalone="no"?>
<svg id="lucide:square-dashed-kanban" width="110" height="110" viewBox="0 0 110 110" fill="none" xmlns="http://www.w3.org/2000/svg" style="max-width: 100%; max-height: 100%;">
<path d="M36.6667 32.0833V64.1667M55 32.0833V50.4167M73.3333 32.0833V73.3333M22.9167 13.75C20.4855 13.75 18.1539 14.7158 16.4349 16.4349C14.7158 18.1539 13.75 20.4855 13.75 22.9167M41.25 13.75H45.8333M64.1667 13.75H68.75M87.0833 13.75C89.5145 13.75 91.8461 14.7158 93.5651 16.4349C95.2842 18.1539 96.25 20.4855 96.25 22.9167M96.25 41.25V45.8333M96.25 64.1667V68.75M96.25 87.0833C96.25 89.5145 95.2842 91.8461 93.5651 93.5651C91.8461 95.2842 89.5145 96.25 87.0833 96.25M64.1667 96.25H68.75M41.25 96.25H45.8333M22.9167 96.25C20.4855 96.25 18.1539 95.2842 16.4349 93.5651C14.7158 91.8461 13.75 89.5145 13.75 87.0833M13.75 64.1667V68.75M13.75 41.25V45.8333" stroke="#FEC400" stroke-width="3" stroke-linecap="round" stroke-linejoin="round" stroke-dasharray="0,0,0,185.92942810058594"><animate attributeType="XML" attributeName="stroke-dasharray" repeatCount="1" dur="0.8064516129032258s" values="0,0,0,185.92942810058594; 
          0,92.96471405029297,92.96471405029297,0; 
          185.92942810058594,0,0,0" keyTimes="0; 0.5; 1" fill="freeze"></animate></path>
</svg>