<?xml version="1.0" standalone="no"?>
<svg id="lucide:earth-lock" width="110" height="110" viewBox="0 0 110 110" fill="none" xmlns="http://www.w3.org/2000/svg" style="max-width: 100%; max-height: 100%;">
<path d="M32.0832 15.3083V22.9167C32.0832 26.5634 33.5319 30.0608 36.1105 32.6394C38.6892 35.218 42.1865 36.6667 45.8332 36.6667M50.4166 100.604V82.5C50.4166 80.0689 49.4508 77.7373 47.7317 76.0182C46.0126 74.2991 43.6811 73.3334 41.2499 73.3334C38.8188 73.3334 36.4872 72.3676 34.7681 70.6485C33.049 68.9294 32.0832 66.5978 32.0832 64.1667V59.5834C32.0832 57.1522 31.1175 54.8206 29.3984 53.1015C27.6793 51.3825 25.3477 50.4167 22.9166 50.4167H9.39575M98.7249 68.75H77.9166C75.4854 68.75 73.1539 69.7158 71.4348 71.4349C69.7157 73.154 68.7499 75.4855 68.7499 77.9167V98.725" stroke="#FEC400" stroke-width="3" stroke-linecap="round" stroke-linejoin="round" stroke-dasharray="0,0,0,164.62771606445312"><animate attributeType="XML" attributeName="stroke-dasharray" repeatCount="1" dur="0.8064516129032258s" values="0,0,0,164.62771606445312; 
          0,82.31385803222656,82.31385803222656,0; 
          164.62771606445312,0,0,0" keyTimes="0; 0.5; 1" fill="freeze"></animate></path>
<path d="M55 9.16669C46.529 9.1672 38.2239 11.5153 31.0066 15.9503C23.7894 20.3853 17.9424 26.7337 14.1149 34.2907C10.2874 41.8477 8.62902 50.3175 9.32394 58.76C10.0189 67.2024 13.0399 75.2871 18.0516 82.1165C23.0633 88.9459 29.8696 94.2528 37.7149 97.4479C45.5602 100.643 54.1375 101.602 62.4946 100.217C70.8517 98.8323 78.6615 95.1587 85.0571 89.604C91.4526 84.0493 96.1837 76.8308 98.725 68.75M91.6667 27.5V18.3334C91.6667 15.9022 90.7009 13.5706 88.9818 11.8515C87.2627 10.1325 84.9312 9.16669 82.5 9.16669C80.0689 9.16669 77.7373 10.1325 76.0182 11.8515C74.2991 13.5706 73.3333 15.9022 73.3333 18.3334V27.5" stroke="#FEC400" stroke-width="3" stroke-linecap="round" stroke-linejoin="round" stroke-dasharray="0,0,0,249.1482391357422"><animate attributeType="XML" attributeName="stroke-dasharray" repeatCount="1" dur="0.8064516129032258s" values="0,0,0,249.1482391357422; 
          0,124.5741195678711,124.5741195678711,0; 
          249.1482391357422,0,0,0" keyTimes="0; 0.5; 1" fill="freeze"></animate></path>
<path d="M96.2501 27.5H68.7501C66.2188 27.5 64.1667 29.552 64.1667 32.0833V45.8333C64.1667 48.3646 66.2188 50.4167 68.7501 50.4167H96.2501C98.7814 50.4167 100.833 48.3646 100.833 45.8333V32.0833C100.833 29.552 98.7814 27.5 96.2501 27.5Z" stroke="#FEC400" stroke-width="3" stroke-linecap="round" stroke-linejoin="round" stroke-dasharray="0,0,0,111.3015365600586"><animate attributeType="XML" attributeName="stroke-dasharray" repeatCount="1" dur="0.8064516129032258s" values="0,0,0,111.3015365600586; 
          0,55.6507682800293,55.6507682800293,0; 
          111.3015365600586,0,0,0" keyTimes="0; 0.5; 1" fill="freeze"></animate></path>
</svg>